<svg xmlns="http://www.w3.org/2000/svg" xmlns:xlink="http://www.w3.org/1999/xlink" width="29" height="29" viewBox="0 0 29 29"><defs><path id="75ima" d="M236.5 431.01c3.93 0 4.43.02 5.97.09 1.54.07 2.6.31 3.52.67a7.1 7.1 0 0 1 2.57 1.67c.8.8 1.3 1.62 1.67 2.57.36.92.6 1.98.67 3.52.07 1.55.1 2.04.1 5.98 0 3.93-.03 4.43-.1 5.97s-.31 2.6-.67 3.52a7.1 7.1 0 0 1-1.67 2.57 7.1 7.1 0 0 1-2.57 1.67c-.92.36-1.98.6-3.52.67-1.54.07-2.04.1-5.97.1-3.94 0-4.43-.03-5.98-.1-1.54-.07-2.6-.31-3.52-.67a7.1 7.1 0 0 1-2.57-1.67 7.1 7.1 0 0 1-1.67-2.57c-.36-.92-.6-1.98-.67-3.52-.07-1.54-.09-2.04-.09-5.97 0-3.94.02-4.43.09-5.98.07-1.54.31-2.6.67-3.52a7.1 7.1 0 0 1 1.67-2.57 7.1 7.1 0 0 1 2.57-1.67c.92-.36 1.98-.6 3.52-.67 1.55-.07 2.04-.09 5.98-.09zm0 2.61c-3.88 0-4.33.02-5.86.09-1.42.06-2.18.3-2.7.5a4.5 4.5 0 0 0-1.66 1.08c-.5.5-.82.99-1.08 1.67-.2.5-.44 1.27-.5 2.69-.07 1.53-.09 1.98-.09 5.86 0 3.87.02 4.32.09 5.85.06 1.42.3 2.18.5 2.7a4.5 4.5 0 0 0 1.08 1.66c.5.5.99.82 1.67 1.09.5.2 1.27.43 2.69.5 1.53.06 1.98.08 5.86.08 3.87 0 4.32-.02 5.85-.09a8.02 8.02 0 0 0 2.7-.5 4.5 4.5 0 0 0 1.66-1.08c.5-.5.82-.99 1.09-1.67.2-.5.43-1.27.5-2.69.06-1.53.08-1.98.08-5.85 0-3.88-.02-4.33-.09-5.86a8.02 8.02 0 0 0-.5-2.7 4.5 4.5 0 0 0-1.08-1.66 4.5 4.5 0 0 0-1.67-1.08 8.02 8.02 0 0 0-2.69-.5c-1.53-.07-1.98-.09-5.85-.09z"/><path id="75imb" d="M231.71 445.5c0-2.66 2.17-4.81 4.85-4.81a4.83 4.83 0 0 1 4.85 4.8c0 2.66-2.17 4.82-4.85 4.82a4.83 4.83 0 0 1-4.85-4.81zm-2.62 0c0 4.09 3.35 7.4 7.47 7.4a7.44 7.44 0 0 0 7.47-7.4c0-4.1-3.34-7.41-7.47-7.41a7.44 7.44 0 0 0-7.47 7.4z"/><path id="75imc" d="M245.94 437.78a1.71 1.71 0 1 1-3.42 0 1.71 1.71 0 0 1 3.42 0"/></defs><g><g transform="translate(-222 -431)"><use fill="#fff" xlink:href="#75ima"/></g><g transform="translate(-222 -431)"><use fill="#fff" xlink:href="#75imb"/></g><g transform="translate(-222 -431)"><use fill="#fff" xlink:href="#75imc"/></g></g></svg>