<svg xmlns="http://www.w3.org/2000/svg" xmlns:xlink="http://www.w3.org/1999/xlink" xml:space="preserve" version="1.1" style="shape-rendering:geometricPrecision;text-rendering:geometricPrecision;image-rendering:optimizeQuality;" viewBox="0 0 0.537 0.49125" x="0px" y="0px" fill-rule="evenodd" clip-rule="evenodd"><defs><style type="text/css">
   
    .fil0 {fill:black;fill-rule:nonzero}
   
  </style></defs><g><path class="fil0" d="M0.02 0.086l0.055 0 0 0.221 -0.055 0c-0.011,0 -0.02,-0.009 -0.02,-0.02l0 -0.181c0,-0.011 0.009,-0.02 0.02,-0.02zm0.321 0.038c-0.011,0 -0.02,-0.008 -0.02,-0.02 0,-0.011 0.009,-0.02 0.02,-0.02 0.031,0 0.059,0.013 0.079,0.033 0.02,0.021 0.033,0.049 0.033,0.08 0,0.031 -0.013,0.059 -0.033,0.079 -0.02,0.02 -0.048,0.033 -0.079,0.033 -0.011,0 -0.02,-0.009 -0.02,-0.02 0,-0.011 0.009,-0.02 0.02,-0.02 0.02,0 0.038,-0.008 0.051,-0.021 0.013,-0.013 0.021,-0.031 0.021,-0.051 0,-0.02 -0.008,-0.038 -0.021,-0.051 -0.013,-0.013 -0.031,-0.022 -0.051,-0.022zm0 -0.084c-0.011,0 -0.02,-0.009 -0.02,-0.02 0,-0.011 0.009,-0.02 0.02,-0.02 0.054,0 0.103,0.022 0.139,0.058 0.035,0.035 0.057,0.084 0.057,0.139 0,0.054 -0.022,0.103 -0.057,0.139 -0.036,0.035 -0.085,0.057 -0.139,0.057 -0.011,0 -0.02,-0.009 -0.02,-0.02 0,-0.011 0.009,-0.02 0.02,-0.02 0.043,0 0.082,-0.017 0.11,-0.046 0.029,-0.028 0.046,-0.067 0.046,-0.11 0,-0.044 -0.017,-0.083 -0.046,-0.111 -0.028,-0.028 -0.067,-0.046 -0.11,-0.046zm-0.226 0.034l0.115 -0.071c0.013,-0.008 0.031,0.002 0.031,0.017l0 0.353c0,0.017 -0.019,0.026 -0.032,0.016l-0.114 -0.07 0 -0.245z"/></g><text x="0" y="15.393" fill="#000000" font-size="5px" font-weight="bold" font-family="'Helvetica Neue', Helvetica, Arial-Unicode, Arial, Sans-serif">Created by Deemak Daksina S</text><text x="0" y="20.393" fill="#000000" font-size="5px" font-weight="bold" font-family="'Helvetica Neue', Helvetica, Arial-Unicode, Arial, Sans-serif">from the Noun Project</text></svg>