<svg xmlns="http://www.w3.org/2000/svg" xmlns:xlink="http://www.w3.org/1999/xlink" xml:space="preserve" version="1.1" style="shape-rendering:geometricPrecision;text-rendering:geometricPrecision;image-rendering:optimizeQuality;" viewBox="0 0 0.427 0.43624999999999997" x="0px" y="0px" fill-rule="evenodd" clip-rule="evenodd"><defs><style type="text/css">
   
    .fil0 {fill:black;fill-rule:nonzero}
   
  </style></defs><g><path class="fil0" d="M0.29 0.134c-0.007,-0.007 -0.007,-0.018 0,-0.025 0.007,-0.007 0.018,-0.007 0.025,0l0.041 0.04 0.041 -0.04c0.007,-0.007 0.018,-0.007 0.025,0 0.007,0.007 0.007,0.018 0,0.025l-0.041 0.041 0.041 0.04c0.007,0.007 0.007,0.019 0,0.026 -0.007,0.006 -0.018,0.006 -0.025,0l-0.041 -0.041 -0.041 0.041c-0.007,0.006 -0.018,0.006 -0.025,0 -0.007,-0.007 -0.007,-0.019 0,-0.026l0.041 -0.04 -0.041 -0.041zm-0.272 -0.057l0.048 0 0 0.195 -0.048 0c-0.01,0 -0.018,-0.008 -0.018,-0.017l0 -0.161c0,-0.009 0.008,-0.017 0.018,-0.017zm0.084 -0.011l0.102 -0.063c0.012,-0.008 0.027,0.001 0.027,0.015l0 0.313c0,0.015 -0.017,0.023 -0.028,0.015l-0.101 -0.063 0 -0.217z"/></g><text x="0" y="15.349" fill="#000000" font-size="5px" font-weight="bold" font-family="'Helvetica Neue', Helvetica, Arial-Unicode, Arial, Sans-serif">Created by Deemak Daksina S</text><text x="0" y="20.349" fill="#000000" font-size="5px" font-weight="bold" font-family="'Helvetica Neue', Helvetica, Arial-Unicode, Arial, Sans-serif">from the Noun Project</text></svg>