<svg xmlns="http://www.w3.org/2000/svg" xmlns:xlink="http://www.w3.org/1999/xlink" width="29" height="28" viewBox="0 0 29 28"><defs><path id="tnova" d="M148.22 438.94v12.93c0 .77-.03 1.54-.16 2.31a5.72 5.72 0 0 1-2.55 4c-.8.53-1.67.8-2.6.92-.6.08-1.2.12-1.79.12H128.6c-.64 0-1.27-.01-1.9-.07-.5-.05-.99-.12-1.46-.26a5.65 5.65 0 0 1-3.68-3.18 7.46 7.46 0 0 1-.56-2.69l-.03-.48v-13.86l.01-.1c.01-.46.05-.9.12-1.35a5.67 5.67 0 0 1 3.67-4.75c.8-.31 1.63-.4 2.48-.45l.52-.03h13.65l.14.01c.6.02 1.2.07 1.78.17.76.14 1.48.4 2.13.83a5.57 5.57 0 0 1 2.48 3.45c.2.82.27 1.65.27 2.48zm-7.3 4.53a4841.1 4841.1 0 0 0-.01-6.75c-.04-.36-.28-.58-.63-.55-.25.02-.5.07-.75.12l-2.28.46-2.58.52-2.5.5c-.3.06-.59.11-.88.19-.3.08-.54.26-.62.59a1.8 1.8 0 0 0-.05.42v10.24c-.02.44-.25.71-.68.8-.32.08-.65.14-.98.2-.42.1-.85.2-1.25.36a2.11 2.11 0 0 0-1.31 2.36 2.09 2.09 0 0 0 2.18 1.75c.4-.02.82-.08 1.22-.2a2.42 2.42 0 0 0 1.63-1.4c.19-.44.24-.91.24-1.39v-8.85-.15c.02-.32.13-.47.45-.55l.05-.02 1.56-.31 2.64-.54 2.6-.52c.17-.03.35-.06.53-.07.18-.01.3.1.35.26l.02.21a4365.45 4365.45 0 0 1-.02 6.4c-.06.32-.26.51-.58.58-.42.1-.85.18-1.28.27-.4.09-.8.19-1.16.37a2.12 2.12 0 0 0 1.03 4.03c.41-.01.82-.08 1.21-.19a2.4 2.4 0 0 0 1.58-1.3c.2-.42.27-.89.27-1.36v-6.48z"/></defs><g><g transform="translate(-120 -432)"><use fill="#fff" xlink:href="#tnova"/></g></g></svg>