<svg xmlns="http://www.w3.org/2000/svg" xmlns:xlink="http://www.w3.org/1999/xlink" width="28" height="28" viewBox="0 0 28 28"><defs><path id="t6dfa" d="M92.28 443.41c-4.51-2.68-11.96-2.93-16.26-1.62a1.3 1.3 0 1 1-.76-2.5c4.94-1.5 13.16-1.21 18.36 1.87a1.31 1.31 0 0 1-1.34 2.25zm-.15 3.97a1.1 1.1 0 0 1-1.5.36c-3.76-2.31-9.5-2.98-13.95-1.63a1.1 1.1 0 0 1-.63-2.09c5.08-1.54 11.4-.8 15.72 1.86.52.32.68.99.36 1.5zm-1.7 3.81a.87.87 0 0 1-1.2.3c-3.3-2.02-7.43-2.47-12.3-1.36a.87.87 0 1 1-.4-1.7c5.34-1.22 9.91-.7 13.6 1.56.41.25.54.8.3 1.2zM70 445a14 14 0 1 0 28 0 14 14 0 0 0-28 0z"/></defs><g><g transform="translate(-70 -431)"><use fill="#fffefe" xlink:href="#t6dfa"/></g></g></svg>